<?xml version="1.0" encoding="UTF-8"?>
<!DOCTYPE svg PUBLIC "-//W3C//DTD SVG 1.1//EN" "http://www.w3.org/Graphics/SVG/1.1/DTD/svg11.dtd">
<svg version="1.1" xmlns="http://www.w3.org/2000/svg" xmlns:xlink="http://www.w3.org/1999/xlink" x="0" y="0" width="1024" height="768" viewBox="0, 0, 1024, 768">
  <g id="Layer_1">
    <path d="M343.915,349.418 L347.786,349.418 L349.697,349.418 L353.551,347.507 L355.478,347.507 L357.372,345.58 L359.315,343.653 L359.315,341.743 L361.209,337.905 L359.315,335.978 L359.315,334.051 L357.372,332.124 L355.478,330.213 L353.551,328.303 L349.697,326.376 L347.786,326.376 L343.915,326.376 L340.094,326.376 L338.151,326.376 L334.33,328.303 L332.386,330.213 L330.508,332.124 L328.548,334.051 L328.548,335.978 L326.654,337.905 L328.548,341.743 L328.548,343.653 L330.508,345.58 L332.386,347.507 L334.33,347.507 L338.151,349.418 L340.094,349.418 z" fill="#143192"/>
    <path d="M603.261,528.068 L607.083,528.068 L610.92,528.068 L612.864,526.141 L614.758,524.231 L616.685,522.304 L618.628,520.376 L620.522,518.466 L620.522,516.555 L620.522,512.701 L618.628,510.774 L616.685,508.847 L614.758,506.937 L612.864,505.01 L610.92,505.01 L607.083,505.01 L603.261,503.082 L599.407,505.01 L597.447,505.01 L593.626,505.01 L591.732,506.937 L589.805,508.847 L587.861,510.774 L587.861,512.701 L587.861,516.555 L587.861,518.466 L587.861,520.376 L589.805,522.304 L591.732,524.231 L593.626,526.141 L597.447,528.068 L599.407,528.068 z" fill="#143192"/>
    <path d="M447.661,616.419 L447.661,700.946 L499.527,679.814 L499.527,716.313 L534.098,716.313 L534.098,664.447 L593.623,639.461 L593.623,712.459 L626.284,712.459 L626.284,616.419 z" fill="#143192"/>
    <path d="M499.534,591.473 L499.534,566.471 L447.668,526.135 L447.668,591.473 z" fill="#143192"/>
    <path d="M326.658,301.39 L326.658,272.566 L253.627,272.566 L253.627,401.267 L322.803,401.267 L534.103,558.807 L534.103,591.468 L593.628,591.468 L593.628,556.88 L589.807,556.88 L585.936,554.969 L582.115,554.969 L578.277,553.009 L574.407,551.099 L572.513,549.188 L568.642,547.278 L566.748,545.367 L562.927,543.44 L559.089,539.602 L557.162,535.732 L555.219,531.894 L553.292,529.984 L551.397,524.219 L551.397,520.381 L549.454,516.544 L551.397,510.779 L553.292,503.087 L557.162,497.339 L562.927,491.558 L568.642,487.72 L576.35,481.972 L584.042,480.045 L591.734,478.102 L591.734,451.238 L411.151,316.773 L411.151,270.656 L357.375,272.566 L357.375,299.479 L361.213,301.39 L365.034,301.39 L368.904,303.3 L370.848,303.3 L374.669,305.227 L378.49,307.171 L380.434,309.098 L384.255,311.025 L388.125,312.936 L390.036,316.773 L393.857,320.594 L395.784,324.432 L397.711,328.303 L399.655,332.124 L399.655,335.978 L399.655,339.815 L399.655,345.58 L397.711,349.418 L395.784,355.182 L393.857,359.037 L526.412,456.97 L526.412,487.72 L374.669,374.404 L370.848,376.314 L366.961,376.314 L363.14,378.225 L361.213,378.225 L357.375,380.135 L353.554,380.135 L349.683,380.135 L345.846,380.135 L340.081,380.135 L334.333,380.135 L328.552,378.225 L324.731,376.314 L318.933,376.314 L315.112,374.404 L311.274,370.549 L305.509,368.639 L303.582,364.785 L299.745,362.858 L295.924,359.037 L293.997,355.182 L292.037,351.345 L292.037,347.507 L290.11,343.653 L290.11,339.815 L292.037,332.124 L293.997,326.376 L295.924,320.594 L301.672,314.846 L305.509,311.025 L313.218,305.227 L318.933,303.3 z" fill="#143192"/>
    <path d="M445.731,309.095 L505.288,353.269 L505.288,270.653 L445.731,272.563 z" fill="#143192"/>
    <path d="M359.309,716.321 L322.794,716.321 L322.794,616.427 L217.168,616.427 L217.168,553.016 L117.258,553.016 L117.258,526.136 L217.168,526.136 L217.168,487.727 L117.258,487.727 L117.258,460.831 L217.168,460.831 L217.168,420.494 L117.258,422.422 L117.258,395.509 L217.168,395.509 L217.168,357.1 L124.95,357.1 L21.219,556.87 L46.205,564.562 L69.263,572.237 L92.306,581.839 L113.421,591.475 L134.552,601.044 L155.717,612.59 L176.816,624.103 L196.053,635.632 L215.225,649.088 L232.519,662.512 L249.813,675.968 L267.09,689.408 L282.457,704.775 L297.857,720.142 L311.281,737.42 L324.721,752.803 L415.012,712.467 L415.012,616.427 L359.309,616.427 z" fill="#143192"/>
    <path d="M724.249,539.601 L724.249,587.596 L1002.781,468.531 L989.325,449.31 L973.974,430.105 L956.68,412.811 L941.33,393.606 L924.036,374.402 L906.742,357.108 L889.448,339.814 L870.227,322.52 L851.038,305.242 L831.817,289.892 L812.629,272.565 L791.514,257.214 L770.366,241.864 L749.251,226.48 L728.086,211.13 L705.06,197.674 L683.962,182.323 L660.854,168.85 L637.844,155.427 L612.859,141.97 L589.8,130.441 L564.814,116.985 L539.878,105.488 L514.876,93.942 L489.89,82.429 L463.027,70.9 L438.057,61.298 L411.145,51.696 L384.248,42.077 L357.385,32.491 L328.562,22.856 L301.682,15.197 L140.304,328.301 L217.172,328.301 L217.172,243.774 L320.87,243.774 L320.87,168.85 L357.385,168.85 L357.385,243.774 L409.251,243.774 L409.251,168.85 L445.733,168.85 L445.733,243.774 L495.704,243.774 L495.704,168.85 L532.17,168.85 L532.17,243.774 L582.108,243.774 L582.108,168.85 L620.517,168.85 L620.517,243.774 L722.322,243.774 L724.249,316.772 L824.159,316.772 L824.159,345.578 L724.249,345.578 L724.249,382.077 L824.159,382.077 L824.159,410.9 L724.249,410.9 L724.249,447.383 L824.159,447.383 L824.159,474.262 L724.249,474.262 L724.249,512.705 L824.159,512.705 L824.159,539.601 z" fill="#143192"/>
    <path d="M653.203,407.048 L653.203,382.062 L685.831,382.062 L685.831,341.743 L618.615,341.743 L616.688,270.656 L535.999,270.656 L535.999,374.404 L620.526,435.855 L620.526,478.102 L622.453,478.102 L626.274,480.045 L630.144,480.045 L632.088,481.972 L635.909,483.883 L637.836,483.883 L639.747,485.793 L643.568,487.72 L647.438,491.558 L649.333,493.485 L653.203,497.339 L655.13,501.177 L657.024,504.998 L658.968,508.852 L658.968,512.706 L658.968,516.544 L658.968,520.381 L658.968,524.219 L657.024,529.984 L655.13,531.894 L653.203,535.732 L649.333,539.602 L647.438,543.44 L643.568,545.351 L639.747,547.278 L637.836,549.188 L635.909,551.099 L633.982,551.099 L630.144,553.009 L628.201,554.953 L624.38,554.953 L622.453,554.953 L622.453,591.468 L685.831,591.468 L685.831,472.353 L653.203,472.353 L653.203,445.457 L685.831,445.457 L685.831,407.048 z" fill="#143192"/>
    <path d="M685.846,274.517 L653.218,274.517 L653.218,314.853 L685.846,314.853 z" fill="#143192"/>
    <path d="M311.281,426.253 L253.634,428.163 L253.634,462.768 L282.457,462.768 L282.457,487.72 L253.634,487.72 L253.634,526.13 L282.457,526.13 L282.457,554.953 L253.634,554.953 L253.634,591.468 L320.867,591.468 L320.867,487.72 L359.309,487.72 L359.309,591.468 L413.085,591.468 L413.085,504.998 z" fill="#143192"/>
  </g>
</svg>
