<?xml version="1.0" encoding="UTF-8"?>
<!DOCTYPE svg PUBLIC "-//W3C//DTD SVG 1.1//EN" "http://www.w3.org/Graphics/SVG/1.1/DTD/svg11.dtd">
<svg version="1.1" xmlns="http://www.w3.org/2000/svg" xmlns:xlink="http://www.w3.org/1999/xlink" x="0" y="0" width="225" height="57" viewBox="0, 0, 225, 57">
  <g id="Layer_1">
    <text transform="matrix(1, 0, 0, 1, 143.681, 22.515)">
      <tspan x="-79.832" y="5.499" font-family="MachineC" font-size="21" kerning="1" fill="#143192">А</tspan>
      <tspan x="-70.012" y="5.499" font-family="MachineC" font-size="14" kerning="1" fill="#143192">втоматика</tspan>
      <tspan x="-4.816" y="5.499" font-family="MachineC" font-size="21" kerning="1" fill="#143192">С</tspan>
      <tspan x="6.138" y="5.499" font-family="MachineC" font-size="14" kerning="1" fill="#143192">пец</tspan>
      <tspan x="27.814" y="5.499" font-family="MachineC" font-size="21" kerning="1" fill="#143192">М</tspan>
      <tspan x="41.036" y="5.499" font-family="MachineC" font-size="14" kerning="1" fill="#143192">онтаж</tspan>
    </text>
    <g id="Логотип">
      <path d="M22.098,26.206 L22.355,26.206 L22.482,26.206 L22.737,26.08 L22.865,26.08 L22.991,25.952 L23.12,25.824 L23.12,25.697 L23.245,25.443 L23.12,25.315 L23.12,25.187 L22.991,25.059 L22.865,24.933 L22.737,24.806 L22.482,24.678 L22.355,24.678 L22.098,24.678 L21.845,24.678 L21.716,24.678 L21.462,24.806 L21.334,24.933 L21.209,25.059 L21.079,25.187 L21.079,25.315 L20.953,25.443 L21.079,25.697 L21.079,25.824 L21.209,25.952 L21.334,26.08 L21.462,26.08 L21.716,26.206 L21.845,26.206 z" fill="#143192"/>
      <path d="M39.299,38.055 L39.552,38.055 L39.807,38.055 L39.936,37.927 L40.061,37.8 L40.189,37.673 L40.318,37.545 L40.443,37.418 L40.443,37.291 L40.443,37.036 L40.318,36.908 L40.189,36.78 L40.061,36.653 L39.936,36.526 L39.807,36.526 L39.552,36.526 L39.299,36.398 L39.043,36.526 L38.913,36.526 L38.66,36.526 L38.534,36.653 L38.406,36.78 L38.277,36.908 L38.277,37.036 L38.277,37.291 L38.277,37.418 L38.277,37.545 L38.406,37.673 L38.534,37.8 L38.66,37.927 L38.913,38.055 L39.043,38.055 z" fill="#143192"/>
      <path d="M28.979,43.915 L28.979,49.521 L32.419,48.119 L32.419,50.54 L34.712,50.54 L34.712,47.1 L38.659,45.443 L38.659,50.284 L40.826,50.284 L40.826,43.915 z" fill="#143192"/>
      <path d="M32.419,42.26 L32.419,40.602 L28.979,37.927 L28.979,42.26 z" fill="#143192"/>
      <path d="M20.954,23.021 L20.954,21.109 L16.11,21.109 L16.11,29.645 L20.698,29.645 L34.712,40.094 L34.712,42.26 L38.66,42.26 L38.66,39.966 L38.406,39.966 L38.15,39.839 L37.896,39.839 L37.642,39.709 L37.385,39.582 L37.259,39.456 L37.003,39.329 L36.877,39.202 L36.624,39.074 L36.369,38.82 L36.241,38.563 L36.112,38.309 L35.985,38.182 L35.859,37.8 L35.859,37.545 L35.73,37.291 L35.859,36.908 L35.985,36.398 L36.241,36.017 L36.624,35.634 L37.003,35.379 L37.514,34.998 L38.024,34.87 L38.534,34.741 L38.534,32.959 L26.557,24.041 L26.557,20.983 L22.991,21.109 L22.991,22.894 L23.245,23.021 L23.499,23.021 L23.756,23.148 L23.884,23.148 L24.138,23.276 L24.391,23.405 L24.52,23.532 L24.774,23.66 L25.03,23.787 L25.157,24.041 L25.411,24.295 L25.538,24.549 L25.666,24.806 L25.795,25.059 L25.795,25.315 L25.795,25.57 L25.795,25.952 L25.666,26.206 L25.538,26.589 L25.411,26.844 L34.202,33.34 L34.202,35.379 L24.138,27.864 L23.884,27.99 L23.627,27.99 L23.373,28.117 L23.245,28.117 L22.991,28.244 L22.737,28.244 L22.481,28.244 L22.226,28.244 L21.844,28.244 L21.463,28.244 L21.079,28.117 L20.826,27.99 L20.441,27.99 L20.188,27.864 L19.933,27.608 L19.551,27.481 L19.423,27.226 L19.169,27.098 L18.915,26.844 L18.788,26.589 L18.658,26.334 L18.658,26.08 L18.53,25.824 L18.53,25.57 L18.658,25.059 L18.788,24.678 L18.915,24.295 L19.297,23.914 L19.551,23.66 L20.062,23.276 L20.441,23.148 z" fill="#143192"/>
      <path d="M28.851,23.532 L32.801,26.462 L32.801,20.983 L28.851,21.109 z" fill="#143192"/>
      <path d="M23.119,50.54 L20.697,50.54 L20.697,43.915 L13.692,43.915 L13.692,39.71 L7.066,39.71 L7.066,37.927 L13.692,37.927 L13.692,35.379 L7.066,35.379 L7.066,33.596 L13.692,33.596 L13.692,30.92 L7.066,31.048 L7.066,29.263 L13.692,29.263 L13.692,26.716 L7.576,26.716 L0.696,39.965 L2.353,40.475 L3.883,40.984 L5.411,41.621 L6.811,42.26 L8.213,42.895 L9.616,43.661 L11.016,44.424 L12.292,45.189 L13.563,46.081 L14.71,46.972 L15.857,47.864 L17.003,48.755 L18.022,49.775 L19.044,50.794 L19.934,51.94 L20.825,52.96 L26.814,50.285 L26.814,43.915 L23.119,43.915 z" fill="#143192"/>
      <path d="M47.323,38.82 L47.323,42.003 L65.796,34.106 L64.903,32.831 L63.885,31.558 L62.738,30.411 L61.72,29.137 L60.573,27.863 L59.426,26.716 L58.279,25.569 L57.004,24.422 L55.732,23.277 L54.457,22.259 L53.184,21.109 L51.784,20.091 L50.381,19.073 L48.981,18.053 L47.577,17.035 L46.05,16.142 L44.651,15.124 L43.118,14.231 L41.592,13.34 L39.935,12.448 L38.406,11.683 L36.749,10.791 L35.095,10.028 L33.437,9.263 L31.78,8.499 L29.998,7.734 L28.342,7.098 L26.557,6.461 L24.773,5.823 L22.992,5.187 L21.08,4.548 L19.297,4.04 L8.594,24.806 L13.692,24.806 L13.692,19.2 L20.57,19.2 L20.57,14.231 L22.992,14.231 L22.992,19.2 L26.431,19.2 L26.431,14.231 L28.851,14.231 L28.851,19.2 L32.165,19.2 L32.165,14.231 L34.584,14.231 L34.584,19.2 L37.896,19.2 L37.896,14.231 L40.443,14.231 L40.443,19.2 L47.195,19.2 L47.323,24.041 L53.949,24.041 L53.949,25.952 L47.323,25.952 L47.323,28.372 L53.949,28.372 L53.949,30.284 L47.323,30.284 L47.323,32.704 L53.949,32.704 L53.949,34.486 L47.323,34.486 L47.323,37.036 L53.949,37.036 L53.949,38.82 z" fill="#143192"/>
      <path d="M42.611,30.029 L42.611,28.371 L44.775,28.371 L44.775,25.697 L40.317,25.697 L40.189,20.983 L34.838,20.983 L34.838,27.864 L40.444,31.939 L40.444,34.741 L40.572,34.741 L40.825,34.87 L41.082,34.87 L41.211,34.998 L41.464,35.124 L41.592,35.124 L41.718,35.251 L41.972,35.379 L42.229,35.634 L42.354,35.761 L42.611,36.017 L42.739,36.271 L42.864,36.525 L42.993,36.78 L42.993,37.036 L42.993,37.291 L42.993,37.545 L42.993,37.8 L42.864,38.182 L42.739,38.309 L42.611,38.563 L42.354,38.82 L42.229,39.074 L41.972,39.201 L41.718,39.329 L41.592,39.456 L41.464,39.582 L41.336,39.582 L41.082,39.709 L40.953,39.838 L40.699,39.838 L40.572,39.838 L40.572,42.26 L44.775,42.26 L44.775,34.36 L42.611,34.36 L42.611,32.576 L44.775,32.576 L44.775,30.029 z" fill="#143192"/>
      <path d="M44.776,21.239 L42.612,21.239 L42.612,23.914 L44.776,23.914 z" fill="#143192"/>
      <path d="M19.934,31.302 L16.111,31.429 L16.111,33.724 L18.022,33.724 L18.022,35.379 L16.111,35.379 L16.111,37.926 L18.022,37.926 L18.022,39.838 L16.111,39.838 L16.111,42.26 L20.57,42.26 L20.57,35.379 L23.119,35.379 L23.119,42.26 L26.686,42.26 L26.686,36.525 z" fill="#143192"/>
    </g>
    <text transform="matrix(1, 0, 0, 1, 143.681, 38.958)">
      <tspan x="-72.024" y="0.5" font-family="PTSans-Caption" font-size="8" fill="#143192" fill-opacity="0.5">проектирование, монтаж, результат</tspan>
    </text>
  </g>
</svg>
