<?xml version="1.0" encoding="UTF-8"?>
<!DOCTYPE svg PUBLIC "-//W3C//DTD SVG 1.1//EN" "http://www.w3.org/Graphics/SVG/1.1/DTD/svg11.dtd">
<svg version="1.1" xmlns="http://www.w3.org/2000/svg" xmlns:xlink="http://www.w3.org/1999/xlink" x="0" y="0" width="225" height="57" viewBox="0, 0, 225, 57">
  <g id="Layer_1">
    <path d="M70.569,13.314 L65.613,13.314 L63.555,28.014 L66.747,28.014 L67.02,25.284 L69.456,25.284 L69.771,28.014 L72.963,28.014 z M69.099,22.512 L67.293,22.512 L68.049,16.107 L68.406,16.107 z" fill="#143192"/>
    <path d="M74.257,18.214 L74.257,28.014 L78.261,28.014 L79.745,26.586 L79.745,24.038 L78.485,23.03 L79.563,22.05 L79.563,19.474 L78.191,18.214 z M77.701,20.062 L77.701,22.176 L76.301,22.176 L76.301,20.062 z M77.701,24.024 L77.701,26.166 L76.301,26.166 L76.301,24.024 z" fill="#143192"/>
    <path d="M86.205,18.214 L81.361,18.214 L81.361,20.062 L82.761,20.062 L82.761,28.014 L84.805,28.014 L84.805,20.062 L86.205,20.062 z" fill="#143192"/>
    <path d="M93.337,19.642 L91.853,18.214 L89.333,18.214 L87.849,19.642 L87.849,26.586 L89.333,28.014 L91.853,28.014 L93.337,26.586 z M91.293,20.062 L91.293,26.166 L89.893,26.166 L89.893,20.062 z" fill="#143192"/>
    <path d="M102.485,18.214 L99.867,18.214 L99.125,22.708 L98.929,22.708 L98.131,18.214 L95.513,18.214 L95.513,28.014 L97.557,28.014 L97.557,21.98 L97.585,21.98 L98.579,28.014 L99.419,28.014 L100.413,21.98 L100.441,21.98 L100.441,28.014 L102.485,28.014 z" fill="#143192"/>
    <path d="M108.553,18.214 L105.249,18.214 L103.877,28.014 L106.005,28.014 L106.187,26.194 L107.811,26.194 L108.021,28.014 L110.149,28.014 z M107.573,24.346 L106.369,24.346 L106.873,20.076 L107.111,20.076 z" fill="#143192"/>
    <path d="M115.853,18.214 L111.009,18.214 L111.009,20.062 L112.409,20.062 L112.409,28.014 L114.453,28.014 L114.453,20.062 L115.853,20.062 z" fill="#143192"/>
    <path d="M117.497,18.214 L117.497,28.014 L119.275,28.014 L120.885,22.96 L120.913,22.96 L120.913,28.014 L122.957,28.014 L122.957,18.214 L121.179,18.214 L119.569,23.268 L119.541,23.268 L119.541,18.214 z" fill="#143192"/>
    <path d="M127.177,18.214 L125.133,18.214 L125.133,28.014 L127.177,28.014 L127.177,23.828 L127.205,23.828 L128.857,28.014 L131.125,28.014 L129.011,22.638 L130.929,18.214 L128.745,18.214 L127.205,22.4 L127.177,22.4 z" fill="#143192"/>
    <path d="M136.465,18.214 L133.161,18.214 L131.789,28.014 L133.917,28.014 L134.099,26.194 L135.723,26.194 L135.933,28.014 L138.061,28.014 z M135.485,24.346 L134.281,24.346 L134.785,20.076 L135.023,20.076 z" fill="#143192"/>
    <path d="M147.979,15.456 L145.753,13.314 L141.973,13.314 L139.747,15.456 L139.747,25.872 L141.973,28.014 L145.753,28.014 L147.979,25.872 L147.979,21.735 L144.913,21.735 L144.913,25.242 L142.813,25.242 L142.813,16.086 L144.913,16.086 L144.913,18.942 L147.979,18.942 z" fill="#143192"/>
    <path d="M153.851,20.062 L153.851,28.014 L155.895,28.014 L155.895,18.214 L150.407,18.214 L150.407,28.014 L152.451,28.014 L152.451,20.062 z" fill="#143192"/>
    <path d="M162.411,18.214 L158.071,18.214 L158.071,28.014 L162.411,28.014 L162.411,26.166 L160.115,26.166 L160.115,23.758 L162.061,23.758 L162.061,21.91 L160.115,21.91 L160.115,20.062 L162.411,20.062 z" fill="#143192"/>
    <path d="M164.167,18.214 L164.167,28.014 L168.535,28.014 L168.535,29.862 L170.439,29.862 L170.439,26.166 L169.655,26.166 L169.655,18.214 L167.611,18.214 L167.611,26.166 L166.211,26.166 L166.211,18.214 z" fill="#143192"/>
    <path d="M182.835,13.314 L178.908,13.314 L177.795,20.055 L177.501,20.055 L176.304,13.314 L172.377,13.314 L172.377,28.014 L175.443,28.014 L175.443,18.963 L175.485,18.963 L176.976,28.014 L178.236,28.014 L179.727,18.963 L179.769,18.963 L179.769,28.014 L182.835,28.014 z" fill="#143192"/>
    <path d="M190.793,19.642 L189.309,18.214 L186.789,18.214 L185.305,19.642 L185.305,26.586 L186.789,28.014 L189.309,28.014 L190.793,26.586 z M188.749,20.062 L188.749,26.166 L187.349,26.166 L187.349,20.062 z" fill="#143192"/>
    <path d="M198.457,18.214 L196.413,18.214 L196.413,22.19 L195.013,22.19 L195.013,18.214 L192.969,18.214 L192.969,28.014 L195.013,28.014 L195.013,24.038 L196.413,24.038 L196.413,28.014 L198.457,28.014 z" fill="#143192"/>
    <path d="M204.945,18.214 L200.101,18.214 L200.101,20.062 L201.501,20.062 L201.501,28.014 L203.545,28.014 L203.545,20.062 L204.945,20.062 z" fill="#143192"/>
    <path d="M210.481,18.214 L207.177,18.214 L205.805,28.014 L207.933,28.014 L208.115,26.194 L209.739,26.194 L209.949,28.014 L212.077,28.014 z M209.501,24.346 L208.297,24.346 L208.801,20.076 L209.039,20.076 z" fill="#143192"/>
    <path d="M218.719,18.214 L216.675,18.214 L216.675,22.4 L216.647,22.4 L215.107,18.214 L212.923,18.214 L214.841,22.638 L212.741,28.014 L215.009,28.014 L216.647,23.828 L216.675,23.828 L216.675,28.014 L218.719,28.014 L218.719,23.828 L218.747,23.828 L220.385,28.014 L222.653,28.014 L220.553,22.638 L222.471,18.214 L220.287,18.214 L218.747,22.4 L218.719,22.4 z" fill="#143192"/>
    <g id="Логотип">
      <path d="M22.098,26.206 L22.355,26.206 L22.482,26.206 L22.737,26.08 L22.865,26.08 L22.991,25.952 L23.12,25.824 L23.12,25.697 L23.245,25.443 L23.12,25.315 L23.12,25.187 L22.991,25.059 L22.865,24.933 L22.737,24.806 L22.482,24.678 L22.355,24.678 L22.098,24.678 L21.845,24.678 L21.716,24.678 L21.462,24.806 L21.334,24.933 L21.209,25.059 L21.079,25.187 L21.079,25.315 L20.953,25.443 L21.079,25.697 L21.079,25.824 L21.209,25.952 L21.334,26.08 L21.462,26.08 L21.716,26.206 L21.845,26.206 z" fill="#143192"/>
      <path d="M39.299,38.055 L39.552,38.055 L39.807,38.055 L39.936,37.927 L40.061,37.8 L40.189,37.673 L40.318,37.545 L40.443,37.418 L40.443,37.291 L40.443,37.036 L40.318,36.908 L40.189,36.78 L40.061,36.653 L39.936,36.526 L39.807,36.526 L39.552,36.526 L39.299,36.398 L39.043,36.526 L38.913,36.526 L38.66,36.526 L38.534,36.653 L38.406,36.78 L38.277,36.908 L38.277,37.036 L38.277,37.291 L38.277,37.418 L38.277,37.545 L38.406,37.673 L38.534,37.8 L38.66,37.927 L38.913,38.055 L39.043,38.055 z" fill="#143192"/>
      <path d="M28.979,43.915 L28.979,49.521 L32.419,48.119 L32.419,50.54 L34.712,50.54 L34.712,47.1 L38.659,45.443 L38.659,50.284 L40.826,50.284 L40.826,43.915 z" fill="#143192"/>
      <path d="M32.419,42.26 L32.419,40.602 L28.979,37.927 L28.979,42.26 z" fill="#143192"/>
      <path d="M20.954,23.021 L20.954,21.109 L16.11,21.109 L16.11,29.645 L20.698,29.645 L34.712,40.094 L34.712,42.26 L38.66,42.26 L38.66,39.966 L38.406,39.966 L38.15,39.839 L37.896,39.839 L37.642,39.709 L37.385,39.582 L37.259,39.456 L37.003,39.329 L36.877,39.202 L36.624,39.074 L36.369,38.82 L36.241,38.563 L36.112,38.309 L35.985,38.182 L35.859,37.8 L35.859,37.545 L35.73,37.291 L35.859,36.908 L35.985,36.398 L36.241,36.017 L36.624,35.634 L37.003,35.379 L37.514,34.998 L38.024,34.87 L38.534,34.741 L38.534,32.959 L26.557,24.041 L26.557,20.983 L22.991,21.109 L22.991,22.894 L23.245,23.021 L23.499,23.021 L23.756,23.148 L23.884,23.148 L24.138,23.276 L24.391,23.405 L24.52,23.532 L24.774,23.66 L25.03,23.787 L25.157,24.041 L25.411,24.295 L25.538,24.549 L25.666,24.806 L25.795,25.059 L25.795,25.315 L25.795,25.57 L25.795,25.952 L25.666,26.206 L25.538,26.589 L25.411,26.844 L34.202,33.34 L34.202,35.379 L24.138,27.864 L23.884,27.99 L23.627,27.99 L23.373,28.117 L23.245,28.117 L22.991,28.244 L22.737,28.244 L22.481,28.244 L22.226,28.244 L21.844,28.244 L21.463,28.244 L21.079,28.117 L20.826,27.99 L20.441,27.99 L20.188,27.864 L19.933,27.608 L19.551,27.481 L19.423,27.226 L19.169,27.098 L18.915,26.844 L18.788,26.589 L18.658,26.334 L18.658,26.08 L18.53,25.824 L18.53,25.57 L18.658,25.059 L18.788,24.678 L18.915,24.295 L19.297,23.914 L19.551,23.66 L20.062,23.276 L20.441,23.148 z" fill="#143192"/>
      <path d="M28.851,23.532 L32.801,26.462 L32.801,20.983 L28.851,21.109 z" fill="#143192"/>
      <path d="M23.119,50.54 L20.697,50.54 L20.697,43.915 L13.692,43.915 L13.692,39.71 L7.066,39.71 L7.066,37.927 L13.692,37.927 L13.692,35.379 L7.066,35.379 L7.066,33.596 L13.692,33.596 L13.692,30.92 L7.066,31.048 L7.066,29.263 L13.692,29.263 L13.692,26.716 L7.576,26.716 L0.696,39.965 L2.353,40.475 L3.883,40.984 L5.411,41.621 L6.811,42.26 L8.213,42.895 L9.616,43.661 L11.016,44.424 L12.292,45.189 L13.563,46.081 L14.71,46.972 L15.857,47.864 L17.003,48.755 L18.022,49.775 L19.044,50.794 L19.934,51.94 L20.825,52.96 L26.814,50.285 L26.814,43.915 L23.119,43.915 z" fill="#143192"/>
      <path d="M47.323,38.82 L47.323,42.003 L65.796,34.106 L64.903,32.831 L63.885,31.558 L62.738,30.411 L61.72,29.137 L60.573,27.863 L59.426,26.716 L58.279,25.569 L57.004,24.422 L55.732,23.277 L54.457,22.259 L53.184,21.109 L51.784,20.091 L50.381,19.073 L48.981,18.053 L47.577,17.035 L46.05,16.142 L44.651,15.124 L43.118,14.231 L41.592,13.34 L39.935,12.448 L38.406,11.683 L36.749,10.791 L35.095,10.028 L33.437,9.263 L31.78,8.499 L29.998,7.734 L28.342,7.098 L26.557,6.461 L24.773,5.823 L22.992,5.187 L21.08,4.548 L19.297,4.04 L8.594,24.806 L13.692,24.806 L13.692,19.2 L20.57,19.2 L20.57,14.231 L22.992,14.231 L22.992,19.2 L26.431,19.2 L26.431,14.231 L28.851,14.231 L28.851,19.2 L32.165,19.2 L32.165,14.231 L34.584,14.231 L34.584,19.2 L37.896,19.2 L37.896,14.231 L40.443,14.231 L40.443,19.2 L47.195,19.2 L47.323,24.041 L53.949,24.041 L53.949,25.952 L47.323,25.952 L47.323,28.372 L53.949,28.372 L53.949,30.284 L47.323,30.284 L47.323,32.704 L53.949,32.704 L53.949,34.486 L47.323,34.486 L47.323,37.036 L53.949,37.036 L53.949,38.82 z" fill="#143192"/>
      <path d="M42.611,30.029 L42.611,28.371 L44.775,28.371 L44.775,25.697 L40.317,25.697 L40.189,20.983 L34.838,20.983 L34.838,27.864 L40.444,31.939 L40.444,34.741 L40.572,34.741 L40.825,34.87 L41.082,34.87 L41.211,34.998 L41.464,35.124 L41.592,35.124 L41.718,35.251 L41.972,35.379 L42.229,35.634 L42.354,35.761 L42.611,36.017 L42.739,36.271 L42.864,36.525 L42.993,36.78 L42.993,37.036 L42.993,37.291 L42.993,37.545 L42.993,37.8 L42.864,38.182 L42.739,38.309 L42.611,38.563 L42.354,38.82 L42.229,39.074 L41.972,39.201 L41.718,39.329 L41.592,39.456 L41.464,39.582 L41.336,39.582 L41.082,39.709 L40.953,39.838 L40.699,39.838 L40.572,39.838 L40.572,42.26 L44.775,42.26 L44.775,34.36 L42.611,34.36 L42.611,32.576 L44.775,32.576 L44.775,30.029 z" fill="#143192"/>
      <path d="M44.776,21.239 L42.612,21.239 L42.612,23.914 L44.776,23.914 z" fill="#143192"/>
      <path d="M19.934,31.302 L16.111,31.429 L16.111,33.724 L18.022,33.724 L18.022,35.379 L16.111,35.379 L16.111,37.926 L18.022,37.926 L18.022,39.838 L16.111,39.838 L16.111,42.26 L20.57,42.26 L20.57,35.379 L23.119,35.379 L23.119,42.26 L26.686,42.26 L26.686,36.525 z" fill="#143192"/>
    </g>
    <path d="M75.161,35.882 L73.097,35.882 L73.097,39.458 L72.361,39.458 L72.361,35.258 L75.897,35.258 L75.897,39.458 L75.161,39.458 z" fill="#143192" fill-opacity="0.5"/>
    <path d="M77.305,35.258 L77.801,35.258 L77.945,35.794 L78.017,35.794 Q78.233,35.482 78.577,35.31 Q78.921,35.138 79.353,35.138 Q80.265,35.138 80.713,35.646 Q81.161,36.154 81.161,37.266 Q81.161,37.794 81.013,38.222 Q80.865,38.65 80.589,38.95 Q80.313,39.25 79.917,39.41 Q79.521,39.57 79.033,39.57 Q78.873,39.57 78.741,39.558 Q78.609,39.546 78.497,39.518 Q78.385,39.49 78.273,39.454 Q78.161,39.418 78.041,39.37 L78.041,41.058 L77.305,41.058 z M79.185,35.762 Q78.705,35.762 78.433,36.002 Q78.161,36.242 78.041,36.738 L78.041,38.674 Q78.225,38.802 78.441,38.874 Q78.657,38.946 78.993,38.946 Q79.641,38.946 80.009,38.522 Q80.377,38.098 80.377,37.258 Q80.377,36.578 80.105,36.17 Q79.833,35.762 79.185,35.762 z" fill="#143192" fill-opacity="0.5"/>
    <path d="M82.121,37.362 Q82.121,36.842 82.257,36.43 Q82.393,36.018 82.657,35.73 Q82.921,35.442 83.301,35.29 Q83.681,35.138 84.169,35.138 Q84.681,35.138 85.065,35.306 Q85.449,35.474 85.705,35.774 Q85.961,36.074 86.085,36.478 Q86.209,36.882 86.209,37.362 Q86.209,37.874 86.069,38.282 Q85.929,38.69 85.669,38.978 Q85.409,39.266 85.029,39.418 Q84.649,39.57 84.169,39.57 Q83.641,39.57 83.257,39.402 Q82.873,39.234 82.621,38.938 Q82.369,38.642 82.245,38.238 Q82.121,37.834 82.121,37.362 z M82.905,37.362 Q82.905,37.658 82.973,37.942 Q83.041,38.226 83.193,38.45 Q83.345,38.674 83.585,38.81 Q83.825,38.946 84.177,38.946 Q85.425,38.946 85.425,37.362 Q85.425,37.05 85.357,36.762 Q85.289,36.474 85.141,36.254 Q84.993,36.034 84.753,35.898 Q84.513,35.762 84.177,35.762 Q83.553,35.762 83.229,36.158 Q82.905,36.554 82.905,37.362 z" fill="#143192" fill-opacity="0.5"/>
    <path d="M90.809,39.114 Q90.529,39.322 90.113,39.446 Q89.697,39.57 89.209,39.57 Q88.681,39.57 88.293,39.414 Q87.905,39.258 87.657,38.97 Q87.409,38.682 87.289,38.274 Q87.169,37.866 87.169,37.362 Q87.169,36.282 87.701,35.71 Q88.233,35.138 89.217,35.138 Q89.529,35.138 89.841,35.206 Q90.153,35.274 90.401,35.462 Q90.649,35.65 90.805,35.978 Q90.961,36.306 90.961,36.834 Q90.961,36.962 90.953,37.13 Q90.945,37.298 90.921,37.458 L87.921,37.458 Q87.937,38.194 88.273,38.57 Q88.609,38.946 89.417,38.946 Q89.753,38.946 90.057,38.83 Q90.361,38.714 90.529,38.554 z M90.257,36.93 Q90.273,36.29 89.997,36.026 Q89.721,35.762 89.225,35.762 Q88.665,35.762 88.337,36.026 Q88.009,36.29 87.953,36.93 z" fill="#143192" fill-opacity="0.5"/>
    <path d="M93.369,37.57 L92.913,37.57 L92.913,39.458 L92.177,39.458 L92.177,35.258 L92.913,35.258 L92.913,37.17 L93.353,37.026 L94.785,35.258 L95.593,35.258 L94.225,36.89 L94.233,36.89 L93.801,37.202 L94.321,37.562 L95.801,39.458 L94.873,39.458 z" fill="#143192" fill-opacity="0.5"/>
    <path d="M99.497,35.882 L98.041,35.882 L98.041,39.458 L97.305,39.458 L97.305,35.882 L95.849,35.882 L95.849,35.258 L99.497,35.258 z" fill="#143192" fill-opacity="0.5"/>
    <path d="M103.105,37.058 L103.217,36.226 L103.129,36.226 L102.737,37.01 L100.769,39.458 L100.201,39.458 L100.201,35.258 L100.937,35.258 L100.937,37.738 L100.881,38.474 L100.969,38.474 L101.337,37.762 L103.265,35.258 L103.841,35.258 L103.841,39.458 L103.105,39.458 z" fill="#143192" fill-opacity="0.5"/>
    <path d="M105.249,35.258 L105.745,35.258 L105.889,35.794 L105.961,35.794 Q106.177,35.482 106.521,35.31 Q106.865,35.138 107.297,35.138 Q108.209,35.138 108.657,35.646 Q109.105,36.154 109.105,37.266 Q109.105,37.794 108.957,38.222 Q108.809,38.65 108.533,38.95 Q108.257,39.25 107.861,39.41 Q107.465,39.57 106.977,39.57 Q106.817,39.57 106.685,39.558 Q106.553,39.546 106.441,39.518 Q106.329,39.49 106.217,39.454 Q106.105,39.418 105.985,39.37 L105.985,41.058 L105.249,41.058 z M107.129,35.762 Q106.649,35.762 106.377,36.002 Q106.105,36.242 105.985,36.738 L105.985,38.674 Q106.169,38.802 106.385,38.874 Q106.601,38.946 106.937,38.946 Q107.585,38.946 107.953,38.522 Q108.321,38.098 108.321,37.258 Q108.321,36.578 108.049,36.17 Q107.777,35.762 107.129,35.762 z" fill="#143192" fill-opacity="0.5"/>
    <path d="M110.065,37.362 Q110.065,36.842 110.201,36.43 Q110.337,36.018 110.601,35.73 Q110.865,35.442 111.245,35.29 Q111.625,35.138 112.113,35.138 Q112.625,35.138 113.009,35.306 Q113.393,35.474 113.649,35.774 Q113.905,36.074 114.029,36.478 Q114.153,36.882 114.153,37.362 Q114.153,37.874 114.013,38.282 Q113.873,38.69 113.613,38.978 Q113.353,39.266 112.973,39.418 Q112.593,39.57 112.113,39.57 Q111.585,39.57 111.201,39.402 Q110.817,39.234 110.565,38.938 Q110.313,38.642 110.189,38.238 Q110.065,37.834 110.065,37.362 z M110.849,37.362 Q110.849,37.658 110.917,37.942 Q110.985,38.226 111.137,38.45 Q111.289,38.674 111.529,38.81 Q111.769,38.946 112.121,38.946 Q113.369,38.946 113.369,37.362 Q113.369,37.05 113.301,36.762 Q113.233,36.474 113.085,36.254 Q112.937,36.034 112.697,35.898 Q112.457,35.762 112.121,35.762 Q111.497,35.762 111.173,36.158 Q110.849,36.554 110.849,37.362 z" fill="#143192" fill-opacity="0.5"/>
    <path d="M115.337,35.258 L115.641,35.242 Q115.897,35.226 116.201,35.206 Q116.505,35.186 116.905,35.186 Q117.833,35.186 118.237,35.446 Q118.641,35.706 118.641,36.218 Q118.641,36.498 118.445,36.782 Q118.249,37.066 117.825,37.194 L117.825,37.282 Q118.353,37.386 118.581,37.634 Q118.809,37.882 118.809,38.29 Q118.809,38.922 118.289,39.222 Q117.769,39.522 116.721,39.522 Q116.369,39.522 116.057,39.502 Q115.745,39.482 115.449,39.458 Q115.417,39.458 115.393,39.454 Q115.369,39.45 115.337,39.45 z M116.073,38.882 Q116.249,38.906 116.417,38.918 Q116.585,38.93 116.833,38.93 Q117.465,38.93 117.745,38.766 Q118.025,38.602 118.025,38.226 Q118.025,38.074 117.969,37.946 Q117.913,37.818 117.785,37.73 Q117.657,37.642 117.437,37.59 Q117.217,37.538 116.897,37.538 L116.073,37.538 z M116.985,37.034 Q117.161,37.034 117.321,36.986 Q117.481,36.938 117.609,36.85 Q117.737,36.762 117.813,36.646 Q117.889,36.53 117.889,36.394 Q117.889,36.058 117.661,35.926 Q117.433,35.794 116.881,35.794 Q116.697,35.794 116.509,35.806 Q116.321,35.818 116.073,35.826 L116.073,37.034 z" fill="#143192" fill-opacity="0.5"/>
    <path d="M119.945,35.522 Q120.665,35.178 121.729,35.178 Q122.209,35.178 122.501,35.302 Q122.793,35.426 122.953,35.618 Q123.113,35.81 123.165,36.046 Q123.217,36.282 123.217,36.514 Q123.217,36.954 123.185,37.398 Q123.153,37.842 123.153,38.362 Q123.153,38.666 123.181,38.95 Q123.209,39.234 123.273,39.474 L122.737,39.474 L122.537,38.834 L122.457,38.834 Q122.369,38.954 122.241,39.078 Q122.113,39.202 121.937,39.298 Q121.761,39.394 121.533,39.458 Q121.305,39.522 121.009,39.522 Q120.713,39.522 120.465,39.438 Q120.217,39.354 120.037,39.202 Q119.857,39.05 119.753,38.83 Q119.649,38.61 119.649,38.338 Q119.649,37.978 119.805,37.714 Q119.961,37.45 120.209,37.282 Q120.457,37.114 120.773,37.034 Q121.089,36.954 121.401,36.954 Q121.649,36.954 121.821,36.962 Q121.993,36.97 122.109,36.982 Q122.225,36.994 122.305,37.006 Q122.385,37.018 122.449,37.026 Q122.465,36.906 122.473,36.818 Q122.481,36.73 122.481,36.594 Q122.481,36.37 122.433,36.218 Q122.385,36.066 122.277,35.974 Q122.169,35.882 121.985,35.842 Q121.801,35.802 121.537,35.802 Q121.385,35.802 121.201,35.826 Q121.017,35.85 120.833,35.894 Q120.649,35.938 120.469,36.002 Q120.289,36.066 120.145,36.138 z M122.449,37.554 Q122.385,37.546 122.313,37.53 Q122.241,37.514 122.133,37.506 Q122.025,37.498 121.877,37.49 Q121.729,37.482 121.513,37.482 Q121.017,37.482 120.725,37.658 Q120.433,37.834 120.433,38.258 Q120.433,38.578 120.661,38.738 Q120.889,38.898 121.249,38.898 Q121.513,38.898 121.717,38.83 Q121.921,38.762 122.069,38.662 Q122.217,38.562 122.309,38.438 Q122.401,38.314 122.449,38.194 z" fill="#143192" fill-opacity="0.5"/>
    <path d="M127.497,37.626 L125.385,37.626 L125.385,39.458 L124.649,39.458 L124.649,35.258 L125.385,35.258 L125.385,36.97 L127.497,36.97 L127.497,35.258 L128.233,35.258 L128.233,39.458 L127.497,39.458 z" fill="#143192" fill-opacity="0.5"/>
    <path d="M132.545,37.058 L132.657,36.226 L132.569,36.226 L132.177,37.01 L130.209,39.458 L129.641,39.458 L129.641,35.258 L130.377,35.258 L130.377,37.738 L130.321,38.474 L130.409,38.474 L130.777,37.762 L132.705,35.258 L133.281,35.258 L133.281,39.458 L132.545,39.458 z" fill="#143192" fill-opacity="0.5"/>
    <path d="M138.105,39.114 Q137.825,39.322 137.409,39.446 Q136.993,39.57 136.505,39.57 Q135.977,39.57 135.589,39.414 Q135.201,39.258 134.953,38.97 Q134.705,38.682 134.585,38.274 Q134.465,37.866 134.465,37.362 Q134.465,36.282 134.997,35.71 Q135.529,35.138 136.513,35.138 Q136.825,35.138 137.137,35.206 Q137.449,35.274 137.697,35.462 Q137.945,35.65 138.101,35.978 Q138.257,36.306 138.257,36.834 Q138.257,36.962 138.249,37.13 Q138.241,37.298 138.217,37.458 L135.217,37.458 Q135.233,38.194 135.569,38.57 Q135.905,38.946 136.713,38.946 Q137.049,38.946 137.353,38.83 Q137.657,38.714 137.825,38.554 z M137.553,36.93 Q137.569,36.29 137.293,36.026 Q137.017,35.762 136.521,35.762 Q135.961,35.762 135.633,36.026 Q135.305,36.29 135.249,36.93 z" fill="#143192" fill-opacity="0.5"/>
    <path d="M139.193,39.082 Q139.193,38.874 139.345,38.742 Q139.497,38.61 139.713,38.61 Q139.993,38.61 140.169,38.798 Q140.345,38.986 140.345,39.322 Q140.345,39.634 140.253,39.862 Q140.161,40.09 140.017,40.254 Q139.873,40.418 139.701,40.514 Q139.529,40.61 139.361,40.658 L139.137,40.29 Q139.441,40.186 139.597,39.958 Q139.753,39.73 139.745,39.498 Q139.529,39.562 139.361,39.45 Q139.193,39.338 139.193,39.082 z" fill="#143192" fill-opacity="0.5"/>
    <path d="M147.201,37.082 L147.249,36.226 L147.153,36.226 L146.793,36.882 L145.713,38.474 L145.465,38.474 L144.329,36.882 L144.009,36.226 L143.921,36.226 L143.993,37.074 L143.993,39.458 L143.313,39.458 L143.313,35.258 L144.081,35.258 L145.337,37.106 L145.641,37.69 L145.977,37.09 L147.153,35.258 L147.921,35.258 L147.921,39.458 L147.201,39.458 z" fill="#143192" fill-opacity="0.5"/>
    <path d="M149.105,37.362 Q149.105,36.842 149.241,36.43 Q149.377,36.018 149.641,35.73 Q149.905,35.442 150.285,35.29 Q150.665,35.138 151.153,35.138 Q151.665,35.138 152.049,35.306 Q152.433,35.474 152.689,35.774 Q152.945,36.074 153.069,36.478 Q153.193,36.882 153.193,37.362 Q153.193,37.874 153.053,38.282 Q152.913,38.69 152.653,38.978 Q152.393,39.266 152.013,39.418 Q151.633,39.57 151.153,39.57 Q150.625,39.57 150.241,39.402 Q149.857,39.234 149.605,38.938 Q149.353,38.642 149.229,38.238 Q149.105,37.834 149.105,37.362 z M149.889,37.362 Q149.889,37.658 149.957,37.942 Q150.025,38.226 150.177,38.45 Q150.329,38.674 150.569,38.81 Q150.809,38.946 151.161,38.946 Q152.409,38.946 152.409,37.362 Q152.409,37.05 152.341,36.762 Q152.273,36.474 152.125,36.254 Q151.977,36.034 151.737,35.898 Q151.497,35.762 151.161,35.762 Q150.537,35.762 150.213,36.158 Q149.889,36.554 149.889,37.362 z" fill="#143192" fill-opacity="0.5"/>
    <path d="M157.225,37.626 L155.113,37.626 L155.113,39.458 L154.377,39.458 L154.377,35.258 L155.113,35.258 L155.113,36.97 L157.225,36.97 L157.225,35.258 L157.961,35.258 L157.961,39.458 L157.225,39.458 z" fill="#143192" fill-opacity="0.5"/>
    <path d="M162.313,35.882 L160.857,35.882 L160.857,39.458 L160.121,39.458 L160.121,35.882 L158.665,35.882 L158.665,35.258 L162.313,35.258 z" fill="#143192" fill-opacity="0.5"/>
    <path d="M162.969,35.522 Q163.689,35.178 164.753,35.178 Q165.233,35.178 165.525,35.302 Q165.817,35.426 165.977,35.618 Q166.137,35.81 166.189,36.046 Q166.241,36.282 166.241,36.514 Q166.241,36.954 166.209,37.398 Q166.177,37.842 166.177,38.362 Q166.177,38.666 166.205,38.95 Q166.233,39.234 166.297,39.474 L165.761,39.474 L165.561,38.834 L165.481,38.834 Q165.393,38.954 165.265,39.078 Q165.137,39.202 164.961,39.298 Q164.785,39.394 164.557,39.458 Q164.329,39.522 164.033,39.522 Q163.737,39.522 163.489,39.438 Q163.241,39.354 163.061,39.202 Q162.881,39.05 162.777,38.83 Q162.673,38.61 162.673,38.338 Q162.673,37.978 162.829,37.714 Q162.985,37.45 163.233,37.282 Q163.481,37.114 163.797,37.034 Q164.113,36.954 164.425,36.954 Q164.673,36.954 164.845,36.962 Q165.017,36.97 165.133,36.982 Q165.249,36.994 165.329,37.006 Q165.409,37.018 165.473,37.026 Q165.489,36.906 165.497,36.818 Q165.505,36.73 165.505,36.594 Q165.505,36.37 165.457,36.218 Q165.409,36.066 165.301,35.974 Q165.193,35.882 165.009,35.842 Q164.825,35.802 164.561,35.802 Q164.409,35.802 164.225,35.826 Q164.041,35.85 163.857,35.894 Q163.673,35.938 163.493,36.002 Q163.313,36.066 163.169,36.138 z M165.473,37.554 Q165.409,37.546 165.337,37.53 Q165.265,37.514 165.157,37.506 Q165.049,37.498 164.901,37.49 Q164.753,37.482 164.537,37.482 Q164.041,37.482 163.749,37.658 Q163.457,37.834 163.457,38.258 Q163.457,38.578 163.685,38.738 Q163.913,38.898 164.273,38.898 Q164.537,38.898 164.741,38.83 Q164.945,38.762 165.093,38.662 Q165.241,38.562 165.333,38.438 Q165.425,38.314 165.473,38.194 z" fill="#143192" fill-opacity="0.5"/>
    <path d="M169.193,37.602 L167.881,39.458 L167.017,39.458 L168.417,37.562 L168.777,37.282 L168.273,36.938 L167.121,35.258 L167.921,35.258 L169.145,37.074 L169.673,37.074 L169.673,35.258 L170.393,35.258 L170.393,37.162 L170.873,37.034 L172.105,35.258 L172.897,35.258 L171.689,36.93 L171.305,37.234 L171.801,37.586 L173.113,39.458 L172.225,39.458 L170.913,37.57 L170.393,37.57 L170.393,39.458 L169.673,39.458 L169.673,37.474 z" fill="#143192" fill-opacity="0.5"/>
    <path d="M173.585,39.082 Q173.585,38.874 173.737,38.742 Q173.889,38.61 174.105,38.61 Q174.385,38.61 174.561,38.798 Q174.737,38.986 174.737,39.322 Q174.737,39.634 174.645,39.862 Q174.553,40.09 174.409,40.254 Q174.265,40.418 174.093,40.514 Q173.921,40.61 173.753,40.658 L173.529,40.29 Q173.833,40.186 173.989,39.958 Q174.145,39.73 174.137,39.498 Q173.921,39.562 173.753,39.45 Q173.585,39.338 173.585,39.082 z" fill="#143192" fill-opacity="0.5"/>
    <path d="M177.705,35.258 L178.201,35.258 L178.345,35.794 L178.417,35.794 Q178.633,35.482 178.977,35.31 Q179.321,35.138 179.753,35.138 Q180.665,35.138 181.113,35.646 Q181.561,36.154 181.561,37.266 Q181.561,37.794 181.413,38.222 Q181.265,38.65 180.989,38.95 Q180.713,39.25 180.317,39.41 Q179.921,39.57 179.433,39.57 Q179.273,39.57 179.141,39.558 Q179.009,39.546 178.897,39.518 Q178.785,39.49 178.673,39.454 Q178.561,39.418 178.441,39.37 L178.441,41.058 L177.705,41.058 z M179.585,35.762 Q179.105,35.762 178.833,36.002 Q178.561,36.242 178.441,36.738 L178.441,38.674 Q178.625,38.802 178.841,38.874 Q179.057,38.946 179.393,38.946 Q180.041,38.946 180.409,38.522 Q180.777,38.098 180.777,37.258 Q180.777,36.578 180.505,36.17 Q180.233,35.762 179.585,35.762 z" fill="#143192" fill-opacity="0.5"/>
    <path d="M186.161,39.114 Q185.881,39.322 185.465,39.446 Q185.049,39.57 184.561,39.57 Q184.033,39.57 183.645,39.414 Q183.257,39.258 183.009,38.97 Q182.761,38.682 182.641,38.274 Q182.521,37.866 182.521,37.362 Q182.521,36.282 183.053,35.71 Q183.585,35.138 184.569,35.138 Q184.881,35.138 185.193,35.206 Q185.505,35.274 185.753,35.462 Q186.001,35.65 186.157,35.978 Q186.313,36.306 186.313,36.834 Q186.313,36.962 186.305,37.13 Q186.297,37.298 186.273,37.458 L183.273,37.458 Q183.289,38.194 183.625,38.57 Q183.961,38.946 184.769,38.946 Q185.105,38.946 185.409,38.83 Q185.713,38.714 185.881,38.554 z M185.609,36.93 Q185.625,36.29 185.349,36.026 Q185.073,35.762 184.577,35.762 Q184.017,35.762 183.689,36.026 Q183.361,36.29 183.305,36.93 z" fill="#143192" fill-opacity="0.5"/>
    <path d="M188.009,37.594 L188.009,37.034 L188.625,37.034 Q188.801,37.034 188.965,36.986 Q189.129,36.938 189.257,36.854 Q189.385,36.77 189.461,36.654 Q189.537,36.538 189.537,36.402 Q189.537,36.066 189.289,35.938 Q189.041,35.81 188.537,35.81 Q188.185,35.81 187.893,35.886 Q187.601,35.962 187.417,36.042 L187.217,35.482 Q187.737,35.186 188.777,35.186 Q189.529,35.186 189.913,35.45 Q190.297,35.714 190.297,36.218 Q190.297,36.354 190.245,36.498 Q190.193,36.642 190.089,36.774 Q189.985,36.906 189.837,37.014 Q189.689,37.122 189.497,37.178 L189.497,37.266 Q190.041,37.362 190.257,37.622 Q190.473,37.882 190.473,38.298 Q190.473,38.562 190.353,38.79 Q190.233,39.018 189.993,39.186 Q189.753,39.354 189.389,39.45 Q189.025,39.546 188.545,39.546 Q188.073,39.546 187.765,39.482 Q187.457,39.418 187.209,39.298 L187.401,38.714 Q187.617,38.826 187.921,38.874 Q188.225,38.922 188.585,38.922 Q189.689,38.922 189.689,38.226 Q189.689,37.914 189.425,37.754 Q189.161,37.594 188.505,37.594 z" fill="#143192" fill-opacity="0.5"/>
    <path d="M192.961,37.914 L193.209,38.722 L193.313,38.722 L193.513,37.906 L194.385,35.258 L195.137,35.258 L193.761,39.058 Q193.609,39.45 193.453,39.818 Q193.297,40.186 193.109,40.47 Q192.921,40.754 192.693,40.926 Q192.465,41.098 192.169,41.098 Q191.849,41.098 191.625,41.026 L191.745,40.402 Q191.865,40.442 191.985,40.442 Q192.145,40.442 192.277,40.402 Q192.409,40.362 192.521,40.258 Q192.633,40.154 192.725,39.966 Q192.817,39.778 192.897,39.482 L191.017,35.258 L191.889,35.258 z" fill="#143192" fill-opacity="0.5"/>
    <path d="M198.321,35.882 L196.961,35.882 L196.945,36.122 Q196.889,36.914 196.813,37.542 Q196.737,38.17 196.593,38.606 Q196.449,39.042 196.209,39.27 Q195.969,39.498 195.585,39.498 Q195.409,39.498 195.273,39.478 Q195.137,39.458 195.041,39.418 L195.153,38.746 Q195.257,38.778 195.385,38.778 Q195.577,38.778 195.729,38.638 Q195.881,38.498 195.993,38.114 Q196.105,37.73 196.177,37.042 Q196.249,36.354 196.281,35.258 L199.057,35.258 L199.057,39.458 L198.321,39.458 z" fill="#143192" fill-opacity="0.5"/>
    <path d="M201.201,38.834 Q201.537,38.882 201.881,38.882 Q202.465,38.882 202.741,38.678 Q203.017,38.474 203.017,38.114 Q203.017,37.794 202.749,37.578 Q202.481,37.362 201.905,37.362 Q201.753,37.362 201.569,37.374 Q201.385,37.386 201.201,37.426 z M201.201,36.866 Q201.457,36.826 201.673,36.814 Q201.889,36.802 202.057,36.802 Q202.537,36.802 202.869,36.898 Q203.201,36.994 203.409,37.162 Q203.617,37.33 203.709,37.558 Q203.801,37.786 203.801,38.05 Q203.801,38.81 203.297,39.158 Q202.793,39.506 201.721,39.506 Q201.385,39.506 201.081,39.498 Q200.777,39.49 200.465,39.466 L200.465,35.258 L201.201,35.258 z" fill="#143192" fill-opacity="0.5"/>
    <path d="M207.401,35.882 L205.945,35.882 L205.945,39.458 L205.209,39.458 L205.209,35.882 L203.753,35.882 L203.753,35.258 L207.401,35.258 z" fill="#143192" fill-opacity="0.5"/>
    <path d="M208.057,35.522 Q208.777,35.178 209.841,35.178 Q210.321,35.178 210.613,35.302 Q210.905,35.426 211.065,35.618 Q211.225,35.81 211.277,36.046 Q211.329,36.282 211.329,36.514 Q211.329,36.954 211.297,37.398 Q211.265,37.842 211.265,38.362 Q211.265,38.666 211.293,38.95 Q211.321,39.234 211.385,39.474 L210.849,39.474 L210.649,38.834 L210.569,38.834 Q210.481,38.954 210.353,39.078 Q210.225,39.202 210.049,39.298 Q209.873,39.394 209.645,39.458 Q209.417,39.522 209.121,39.522 Q208.825,39.522 208.577,39.438 Q208.329,39.354 208.149,39.202 Q207.969,39.05 207.865,38.83 Q207.761,38.61 207.761,38.338 Q207.761,37.978 207.917,37.714 Q208.073,37.45 208.321,37.282 Q208.569,37.114 208.885,37.034 Q209.201,36.954 209.513,36.954 Q209.761,36.954 209.933,36.962 Q210.105,36.97 210.221,36.982 Q210.337,36.994 210.417,37.006 Q210.497,37.018 210.561,37.026 Q210.577,36.906 210.585,36.818 Q210.593,36.73 210.593,36.594 Q210.593,36.37 210.545,36.218 Q210.497,36.066 210.389,35.974 Q210.281,35.882 210.097,35.842 Q209.913,35.802 209.649,35.802 Q209.497,35.802 209.313,35.826 Q209.129,35.85 208.945,35.894 Q208.761,35.938 208.581,36.002 Q208.401,36.066 208.257,36.138 z M210.561,37.554 Q210.497,37.546 210.425,37.53 Q210.353,37.514 210.245,37.506 Q210.137,37.498 209.989,37.49 Q209.841,37.482 209.625,37.482 Q209.129,37.482 208.837,37.658 Q208.545,37.834 208.545,38.258 Q208.545,38.578 208.773,38.738 Q209.001,38.898 209.361,38.898 Q209.625,38.898 209.829,38.83 Q210.033,38.762 210.181,38.662 Q210.329,38.562 210.421,38.438 Q210.513,38.314 210.561,38.194 z" fill="#143192" fill-opacity="0.5"/>
    <path d="M215.705,35.882 L214.249,35.882 L214.249,39.458 L213.513,39.458 L213.513,35.882 L212.057,35.882 L212.057,35.258 L215.705,35.258 z" fill="#143192" fill-opacity="0.5"/>
  </g>
</svg>
