<?xml version="1.0" encoding="UTF-8"?>
<!DOCTYPE svg PUBLIC "-//W3C//DTD SVG 1.1//EN" "http://www.w3.org/Graphics/SVG/1.1/DTD/svg11.dtd">
<svg version="1.1" xmlns="http://www.w3.org/2000/svg" xmlns:xlink="http://www.w3.org/1999/xlink" x="0" y="0" width="1024" height="120" viewBox="0, 0, 1024, 120">
  <g id="Layer_1">
    <path d="M51.083,17.987 L26.006,17.987 L15.592,92.37 L31.744,92.37 L33.125,78.556 L45.452,78.556 L47.046,92.37 L63.197,92.37 z M43.645,64.529 L34.507,64.529 L38.332,32.12 L40.139,32.12 z" fill="#143192"/>
    <path d="M82.308,41.231 L82.308,92.37 L103.201,92.37 L110.945,84.918 L110.945,71.622 L104.37,66.362 L109.995,61.248 L109.995,47.806 L102.836,41.231 z M100.279,50.875 L100.279,61.906 L92.974,61.906 L92.974,50.875 z M100.279,71.549 L100.279,82.727 L92.974,82.727 L92.974,71.549 z" fill="#143192"/>
    <path d="M154.778,41.231 L129.501,41.231 L129.501,50.875 L136.806,50.875 L136.806,92.37 L147.472,92.37 L147.472,50.875 L154.778,50.875 z" fill="#143192"/>
    <path d="M202.117,48.683 L194.374,41.231 L181.224,41.231 L173.48,48.683 L173.48,84.918 L181.224,92.37 L194.374,92.37 L202.117,84.918 z M191.451,50.875 L191.451,82.727 L184.146,82.727 L184.146,50.875 z" fill="#143192"/>
    <path d="M259.977,41.231 L246.315,41.231 L242.444,64.682 L241.421,64.682 L237.257,41.231 L223.595,41.231 L223.595,92.37 L234.261,92.37 L234.261,60.883 L234.408,60.883 L239.594,92.37 L243.978,92.37 L249.165,60.883 L249.311,60.883 L249.311,92.37 L259.977,92.37 z" fill="#143192"/>
    <path d="M301.764,41.231 L284.523,41.231 L277.364,92.37 L288.468,92.37 L289.418,82.873 L297.892,82.873 L298.988,92.37 L310.092,92.37 z M296.65,73.229 L290.367,73.229 L292.997,50.948 L294.239,50.948 z" fill="#143192"/>
    <path d="M349.98,41.231 L324.703,41.231 L324.703,50.875 L332.009,50.875 L332.009,92.37 L342.675,92.37 L342.675,50.875 L349.98,50.875 z" fill="#143192"/>
    <path d="M368.682,41.231 L368.682,92.37 L377.96,92.37 L386.361,65.997 L386.508,65.997 L386.508,92.37 L397.174,92.37 L397.174,41.231 L387.896,41.231 L379.494,67.604 L379.348,67.604 L379.348,41.231 z" fill="#143192"/>
    <path d="M429.318,41.231 L418.652,41.231 L418.652,92.37 L429.318,92.37 L429.318,70.526 L429.464,70.526 L438.084,92.37 L449.919,92.37 L438.888,64.317 L448.896,41.231 L437.5,41.231 L429.464,63.075 L429.318,63.075 z" fill="#143192"/>
    <path d="M487.908,41.231 L470.667,41.231 L463.507,92.37 L474.612,92.37 L475.561,82.873 L484.036,82.873 L485.132,92.37 L496.236,92.37 z M482.794,73.229 L476.511,73.229 L479.141,50.948 L480.383,50.948 z" fill="#143192"/>
    <path d="M556.667,28.826 L545.404,17.987 L526.277,17.987 L515.013,28.826 L515.013,81.531 L526.277,92.37 L545.404,92.37 L556.667,81.531 L556.667,60.598 L541.153,60.598 L541.153,78.343 L530.527,78.343 L530.527,32.013 L541.153,32.013 L541.153,46.465 L556.667,46.465 z" fill="#143192"/>
    <path d="M592.587,50.875 L592.587,92.37 L603.253,92.37 L603.253,41.231 L574.616,41.231 L574.616,92.37 L585.282,92.37 L585.282,50.875 z" fill="#143192"/>
    <path d="M647.378,41.231 L624.731,41.231 L624.731,92.37 L647.378,92.37 L647.378,82.727 L635.397,82.727 L635.397,70.161 L645.552,70.161 L645.552,60.518 L635.397,60.518 L635.397,50.875 L647.378,50.875 z" fill="#143192"/>
    <path d="M666.665,41.231 L666.665,92.37 L689.458,92.37 L689.458,102.013 L699.393,102.013 L699.393,82.727 L695.302,82.727 L695.302,41.231 L684.636,41.231 L684.636,82.727 L677.331,82.727 L677.331,41.231 z" fill="#143192"/>
    <path d="M769.484,17.987 L749.613,17.987 L743.981,52.097 L742.494,52.097 L736.437,17.987 L716.566,17.987 L716.566,92.37 L732.08,92.37 L732.08,46.571 L732.293,46.571 L739.837,92.37 L746.213,92.37 L753.757,46.571 L753.97,46.571 L753.97,92.37 L769.484,92.37 z" fill="#143192"/>
    <path d="M816.274,48.683 L808.53,41.231 L795.38,41.231 L787.636,48.683 L787.636,84.918 L795.38,92.37 L808.53,92.37 L816.274,84.918 z M805.608,50.875 L805.608,82.727 L798.302,82.727 L798.302,50.875 z" fill="#143192"/>
    <path d="M862.737,41.231 L852.071,41.231 L852.071,61.979 L844.765,61.979 L844.765,41.231 L834.099,41.231 L834.099,92.37 L844.765,92.37 L844.765,71.622 L852.071,71.622 L852.071,92.37 L862.737,92.37 z" fill="#143192"/>
    <path d="M903.063,41.231 L877.786,41.231 L877.786,50.875 L885.091,50.875 L885.091,92.37 L895.757,92.37 L895.757,50.875 L903.063,50.875 z" fill="#143192"/>
    <path d="M938.421,41.231 L921.18,41.231 L914.021,92.37 L925.125,92.37 L926.075,82.873 L934.549,82.873 L935.645,92.37 L946.75,92.37 z M933.307,73.229 L927.025,73.229 L929.655,50.948 L930.897,50.948 z" fill="#143192"/>
    <path d="M987.879,41.231 L977.213,41.231 L977.213,63.075 L977.067,63.075 L969.031,41.231 L957.635,41.231 L967.643,64.317 L956.685,92.37 L968.52,92.37 L977.067,70.526 L977.213,70.526 L977.213,92.37 L987.879,92.37 L987.879,70.526 L988.026,70.526 L996.573,92.37 L1008.408,92.37 L997.45,64.317 L1007.458,41.231 L996.062,41.231 L988.026,63.075 L987.879,63.075 z" fill="#143192"/>
  </g>
</svg>
